<svg width="48" height="48" viewBox="0 0 48 48" fill="none" xmlns="http://www.w3.org/2000/svg">
<path d="M36.2222 2H11.7778C9.18455 2 6.69753 3.03016 4.86384 4.86384C3.03016 6.69753 2 9.18455 2 11.7778V36.2222C2 38.8154 3.03016 41.3025 4.86384 43.1362C6.69753 44.9698 9.18455 46 11.7778 46H36.2222C38.8154 46 41.3025 44.9698 43.1362 43.1362C44.9698 41.3025 46 38.8154 46 36.2222V11.7778C46 9.18455 44.9698 6.69753 43.1362 4.86384C41.3025 3.03016 38.8154 2 36.2222 2Z" fill="#E9E1DA" stroke="#DC5F00" stroke-width="3" stroke-linejoin="round"/>
<path d="M24.0002 33.7777C26.5934 33.7777 29.0804 32.7476 30.9141 30.9139C32.7478 29.0802 33.778 26.5932 33.778 23.9999C33.778 21.4067 32.7478 18.9197 30.9141 17.086C29.0804 15.2523 26.5934 14.2222 24.0002 14.2222C21.407 14.2222 18.9199 15.2523 17.0863 17.086C15.2526 18.9197 14.2224 21.4067 14.2224 23.9999C14.2224 26.5932 15.2526 29.0802 17.0863 30.9139C18.9199 32.7476 21.407 33.7777 24.0002 33.7777Z" stroke="#DC5F00" stroke-width="3" stroke-linejoin="round"/>
<path d="M37.4444 13.0001C38.0928 13.0001 38.7145 12.7426 39.1729 12.2841C39.6314 11.8257 39.8889 11.204 39.8889 10.5557C39.8889 9.90734 39.6314 9.28559 39.1729 8.82717C38.7145 8.36875 38.0928 8.11121 37.4444 8.11121C36.7961 8.11121 36.1744 8.36875 35.716 8.82717C35.2575 9.28559 35 9.90734 35 10.5557C35 11.204 35.2575 11.8257 35.716 12.2841C36.1744 12.7426 36.7961 13.0001 37.4444 13.0001Z" fill="#DC5F00"/>
</svg>
