<svg width="44" height="46" viewBox="0 0 44 46" fill="none" xmlns="http://www.w3.org/2000/svg">
<rect x="1.5" y="1.5" width="41" height="43" rx="7.5" fill="#E9E1DA" stroke="#DC5F00" stroke-width="3"/>
<path d="M15.617 14.3344C15.6167 14.9532 15.3732 15.5465 14.94 15.9839C14.5069 16.4212 13.9196 16.6667 13.3073 16.6664C12.6951 16.6661 12.108 16.42 11.6753 15.9822C11.2426 15.5444 10.9997 14.9508 11 14.332C11.0003 13.7132 11.2438 13.1199 11.677 12.6826C12.1101 12.2452 12.6974 11.9997 13.3097 12C13.9219 12.0003 14.509 12.2464 14.9417 12.6842C15.3744 13.122 15.6173 13.7156 15.617 14.3344ZM15.6863 18.3941H11.0693V33H15.6863V18.3941ZM22.9811 18.3941H18.3872V33H22.9349V25.3354C22.9349 21.0657 28.4407 20.669 28.4407 25.3354V33H33V23.7488C33 16.5509 24.851 16.8192 22.9349 20.354L22.9811 18.3941Z" fill="#DC5F00"/>
</svg>
